<?xml version="1.0" encoding="iso-8859-1"?>
<!-- Generator: Adobe Illustrator 18.0.0, SVG Export Plug-In . SVG Version: 6.00 Build 0)  -->
<!DOCTYPE svg PUBLIC "-//W3C//DTD SVG 1.1//EN" "http://www.w3.org/Graphics/SVG/1.1/DTD/svg11.dtd">
<svg xmlns="http://www.w3.org/2000/svg" xmlns:xlink="http://www.w3.org/1999/xlink" version="1.1" id="Capa_1" x="0px" y="0px" viewBox="0 0 280 280" style="enable-background:new 0 0 280 280;" xml:space="preserve" width="512px" height="512px">
<path d="M275.456,0H4.544C2.034,0,0,2.035,0,4.544v270.911C0,277.965,2.034,280,4.544,280h270.911c2.509,0,4.544-2.035,4.544-4.544  V4.544C280,2.035,277.965,0,275.456,0z M212.529,191.316l-21.213,21.213L140,161.213l-51.316,51.316l-21.213-21.213L118.787,140  L67.471,88.684l21.213-21.213L140,118.787l51.316-51.316l21.213,21.213L161.213,140L212.529,191.316z" fill="#FFFFFF"/>
<g>
</g>
<g>
</g>
<g>
</g>
<g>
</g>
<g>
</g>
<g>
</g>
<g>
</g>
<g>
</g>
<g>
</g>
<g>
</g>
<g>
</g>
<g>
</g>
<g>
</g>
<g>
</g>
<g>
</g>
</svg>
