<?xml version="1.0" encoding="iso-8859-1"?>
<!-- Generator: Adobe Illustrator 19.1.0, SVG Export Plug-In . SVG Version: 6.00 Build 0)  -->
<svg xmlns="http://www.w3.org/2000/svg" xmlns:xlink="http://www.w3.org/1999/xlink" version="1.1" id="Capa_1" x="0px" y="0px" viewBox="0 0 537.6 537.6" style="enable-background:new 0 0 537.6 537.6;" xml:space="preserve" width="512px" height="512px">
<g>
	<path d="M268.8,151.055c-81.06,0-147,66.021-147,147.181s65.94,147.181,147,147.181s147-66.021,147-147.181   S349.86,151.055,268.8,151.055z M268.8,437.007c-76.44,0-138.6-62.236-138.6-138.77s62.16-138.77,138.6-138.77   s138.6,62.236,138.6,138.77S345.24,437.007,268.8,437.007z" fill="#FFFFFF"/>
	<path d="M503.16,119.517c0.42-1.262,0.84-2.944,0.84-4.205c0-7.149-5.46-12.615-12.6-12.615H462c-7.14,0-12.6,5.467-12.6,12.615   c0,1.682,0.42,2.944,0.84,4.205h-60.06L371.7,81.67c-6.72-13.877-24.78-25.231-39.9-25.231h-126c-15.54,0-33.18,11.354-39.9,25.231   l-18.48,37.846H130.2v-16.821c0-2.523-1.68-4.205-4.2-4.205H42c-2.52,0-4.2,1.682-4.2,4.205v16.821   c-21.42,0-37.8,15.559-37.8,35.744v285.951c0,1.682,0,3.364,0.42,4.626c0,0.421-0.42,0.841-0.42,1.682   c0,1.262,0.42,2.103,1.26,2.944c4.2,17.241,19.32,30.698,36.54,30.698h462c20.16,0,37.8-18.503,37.8-39.949V155.261   C537.6,135.917,522.9,121.199,503.16,119.517z M457.8,115.312c0-2.523,1.68-4.205,4.2-4.205h29.4c2.52,0,4.2,1.682,4.2,4.205   c0,2.523-1.68,4.205-4.2,4.205H462C459.48,119.517,457.8,117.835,457.8,115.312z M331.8,64.85c7.14,0,15.54,3.364,22.26,8.41   H183.54c6.72-5.046,14.7-8.41,22.26-8.41H331.8z M46.2,106.901h75.6v12.615H46.2V106.901z M10.08,451.725H142.8   c4.2,0,4.2,1.262,4.2,2.103v18.923H37.8C25.62,472.75,14.7,463.499,10.08,451.725z M529.2,441.212   c0,16.821-13.86,31.539-29.4,31.539H441V191.004c0-2.523-1.68-4.205-4.2-4.205c-2.52,0-4.2,1.682-4.2,4.205V472.75H155.4v-18.923   c0-5.046-3.36-10.513-12.6-10.513H8.4c0-0.841,0-1.262,0-2.103V155.261c0-15.559,12.6-27.334,29.4-27.334H42h84h23.94   c1.68,0,2.94-0.841,3.78-2.523l19.74-40.37c0.42-1.262,1.26-2.523,2.1-3.785c0.42,0,0.42,0,0.84,0h184.8c0.42,0,0.42,0,0.84,0   c0.84,1.262,1.68,2.523,2.1,3.785l19.74,40.37c0.84,1.262,2.1,2.523,3.78,2.523h44.94v29.436c0,2.523,1.68,4.205,4.2,4.205   c2.52,0,4.2-1.682,4.2-4.205v-29.436h21h29.4h8.4c16.8,0,29.4,11.774,29.4,27.334V441.212z" fill="#FFFFFF"/>
	<path d="M205.8,115.312h126c2.52,0,4.2-1.682,4.2-4.205V94.286c0-2.523-1.68-4.205-4.2-4.205h-126c-2.52,0-4.2,1.682-4.2,4.205   v16.821C201.6,113.629,203.28,115.312,205.8,115.312z M210,98.491h117.6v8.41H210V98.491z" fill="#FFFFFF"/>
	<path d="M58.8,151.055c-13.86,0-25.2,11.354-25.2,25.231c0,13.877,11.34,25.231,25.2,25.231S84,190.163,84,176.286   C84,162.409,72.66,151.055,58.8,151.055z M58.8,193.107c-9.24,0-16.8-7.569-16.8-16.821s7.56-16.821,16.8-16.821   s16.8,7.569,16.8,16.821S68.04,193.107,58.8,193.107z" fill="#FFFFFF"/>
	<path d="M92.4,197.312c-7.14,0-12.6,5.467-12.6,12.615c0,7.149,5.46,12.615,12.6,12.615c7.14,0,12.6-5.467,12.6-12.615   C105,202.779,99.54,197.312,92.4,197.312z M92.4,214.133c-2.52,0-4.2-1.682-4.2-4.205c0-2.523,1.68-4.205,4.2-4.205   c2.52,0,4.2,1.682,4.2,4.205C96.6,212.451,94.92,214.133,92.4,214.133z" fill="#FFFFFF"/>
	<path d="M365.82,231.795c13.44,19.764,20.58,42.472,20.58,66.442c0,64.76-52.92,117.745-117.6,117.745s-117.6-52.985-117.6-117.745   s52.92-117.745,117.6-117.745c24.78,0,48.3,7.569,68.46,21.867c1.68,1.262,4.62,0.841,5.88-0.841c1.26-1.682,0.84-4.626-0.84-5.887   c-21.42-15.559-47.04-23.549-73.5-23.549c-69.3,0-126,56.77-126,126.155s56.7,126.155,126,126.155s126-56.77,126-126.155   c0-25.651-7.56-50.041-21.84-71.067c-1.26-2.103-3.78-2.523-5.88-1.262C364.98,227.169,364.56,229.692,365.82,231.795z" fill="#FFFFFF"/>
	<path d="M268.8,243.569c9.66,0,19.32,2.523,27.72,7.569c2.1,1.262,4.62,0.421,5.88-1.682s0.42-4.626-1.68-5.887   c-9.66-5.467-20.58-8.831-31.92-8.831c-34.86,0-63,28.175-63,63.077s28.14,63.077,63,63.077s63-28.175,63-63.077   c0-11.354-2.94-22.287-8.4-31.959c-1.26-2.103-3.78-2.523-5.88-1.682c-2.1,1.262-2.52,3.785-1.68,5.887   c5.04,8.41,7.56,18.082,7.56,27.754c0,30.277-24.36,54.667-54.6,54.667s-54.6-24.39-54.6-54.667S238.56,243.569,268.8,243.569z" fill="#FFFFFF"/>
</g>
<g>
</g>
<g>
</g>
<g>
</g>
<g>
</g>
<g>
</g>
<g>
</g>
<g>
</g>
<g>
</g>
<g>
</g>
<g>
</g>
<g>
</g>
<g>
</g>
<g>
</g>
<g>
</g>
<g>
</g>
</svg>
